<svg width="50" height="57" viewBox="0 0 50 57" fill="none" xmlns="http://www.w3.org/2000/svg">
<path fill-rule="evenodd" clip-rule="evenodd" d="M24.9944 3.63623C12.9489 3.63623 2.93264 14.6146 2.93264 28.4851C2.93264 42.3557 12.9489 53.334 24.9944 53.334C37.0398 53.334 47.0561 42.3557 47.0561 28.4851C47.0561 14.6146 37.0398 3.63623 24.9944 3.63623ZM0.231207 28.4851C0.231207 13.4164 11.1792 0.934795 24.9944 0.934795C38.8095 0.934795 49.7575 13.4164 49.7575 28.4851C49.7575 43.5539 38.8095 56.0355 24.9944 56.0355C11.1792 56.0355 0.231207 43.5539 0.231207 28.4851ZM11.8082 18.0133C12.5391 17.2824 13.5304 16.8718 14.5641 16.8718H23.8974C24.5772 16.8718 25.1282 17.4228 25.1282 18.1026C25.1282 18.7823 24.5772 19.3333 23.8974 19.3333H14.5641C14.1833 19.3333 13.8181 19.4846 13.5488 19.7539C13.2795 20.0232 13.1282 20.3884 13.1282 20.7692V39.4359C13.1282 39.8167 13.2795 40.182 13.5488 40.4512C13.8181 40.7205 14.1833 40.8718 14.5641 40.8718H33.2308C33.6116 40.8718 33.9768 40.7205 34.2461 40.4512C34.5154 40.182 34.6667 39.8167 34.6667 39.4359V30.1026C34.6667 29.4228 35.2177 28.8718 35.8974 28.8718C36.5772 28.8718 37.1282 29.4228 37.1282 30.1026V39.4359C37.1282 40.4696 36.7176 41.4609 35.9867 42.1918C35.2558 42.9227 34.2644 43.3333 33.2308 43.3333H14.5641C13.5304 43.3333 12.5391 42.9227 11.8082 42.1918C11.0773 41.4609 10.6667 40.4696 10.6667 39.4359V20.7692C10.6667 19.7356 11.0773 18.7442 11.8082 18.0133ZM34.6474 17.1275C34.9425 16.8324 35.3427 16.6667 35.76 16.6667C36.1773 16.6667 36.5774 16.8324 36.8725 17.1275C37.1676 17.4226 37.3333 17.8227 37.3333 18.24C37.3333 18.6573 37.1676 19.0575 36.8725 19.3526L24.5557 31.6693L21.589 32.411L22.3307 29.4443L34.6474 17.1275ZM35.76 14.2051C34.6899 14.2051 33.6636 14.6302 32.9069 15.3869L20.349 27.9448C20.1913 28.1025 20.0794 28.3001 20.0253 28.5165L18.7034 33.8041C18.5986 34.2235 18.7215 34.6671 19.0272 34.9728C19.3328 35.2785 19.7765 35.4014 20.1959 35.2966L25.4835 33.9747C25.6999 33.9206 25.8975 33.8087 26.0552 33.651L38.6131 21.0931C39.3698 20.3364 39.7949 19.3101 39.7949 18.24C39.7949 17.1699 39.3698 16.1436 38.6131 15.3869C37.8564 14.6302 36.8301 14.2051 35.76 14.2051Z" fill="white"/>
</svg>
